<?xml version="1.0" encoding="UTF-8"?>
<svg id="Layer_2" data-name="Layer 2" xmlns="http://www.w3.org/2000/svg" viewBox="0 0 145.45 133.37">
  <g id="_23" data-name="23">
    <path d="m87.02,38.43c.36,1.31,1.71,2.08,3.02,1.72,0,0,0,0,0,0l12.19-3.34c1.3-.36,2.07-1.7,1.72-3.01l-4.09-14.9c-.36-1.3-1.7-2.07-3.01-1.72l-12.16,3.34c-1.31.36-2.08,1.71-1.72,3.02,0,0,0,0,0,0l4.05,14.89Zm8.71-15.86l2.77,10.15-7.4,2.03-2.74-10.14,7.36-2.04Z"/>
    <path d="m142.13,69.37c-2.25-2.06-7.76-4.19-10.79-6.9-.22-.19-.46-.34-.73-.45l-15.73-56.12c-1.19-4.29-5.64-6.8-9.93-5.6,0,0-.01,0-.02,0l-37.84,10.6c-4.29,1.19-6.8,5.64-5.6,9.93,0,0,0,.01,0,.02l14.4,51.37c-5.4,3.87-8.44,9.87-4.64,15.31,1.47,2.03,3.73,3.35,6.22,3.65-.16,3.73,1.75,7.24,4.96,9.14,3.03,1.69,6.14,1.19,9.33-.35l-.36.93c-2.73,7.01.76,13.05,2.45,15.94.21.37.47.82.56,1.02.18,1.57-.33,3.14-1.39,4.32-.69.84-.75,2.04-.13,2.95,4.62,6.77,17.94,9.37,25.34,7.82,13.1-2.76,16.19-9.46,16.51-10.22.2-.52.23-1.09.08-1.62,0,0-.99-3.68-.06-10.28.76-5.2,9.91-27.98,10.51-30.86.66-3.83-.5-7.74-3.14-10.59ZM66.22,19.49c-.45-1.67.54-3.4,2.21-3.85l37.83-10.6c1.67-.45,3.38.53,3.85,2.19l16.67,59.48c.47,1.68-.51,3.42-2.18,3.89,0,0,0,0,0,0l-12.77,3.6c-.88-3.22-2.2-6.31-3.92-9.17-4.2-6.11-12.7-10.37-17.93-5.52-3.76,3.5-2.18,7.38-.35,11.87,1.14,2.68,2.11,5.43,2.92,8.23-2.03.59-4.97,1.42-6.31,1.71-1.53.31-3.03-.68-3.34-2.21,0-.01,0-.03,0-.04l-16.67-59.56Zm55.13,62.76c-1.51,1.39-3.14,2.63-4.89,3.71-1.44-2.17-2.51-4.56-3.16-7.09l3.03-.85c1.57,1.53,3.25,2.94,5.02,4.23Zm-46.08,2.45c-1.78-2.55-.24-5.28,2.07-7.38.62,1.52.75,5.89,4.75,8.05-3.17,1.71-5.69.93-6.82-.67Zm18.35,8.29c-5.29,4.03-7.46,3.73-8.76,3.03-1.84-1.15-2.79-3.31-2.4-5.45,2.81-1.1,5.33-2.85,7.33-5.1,1.23-.34,2.68-.74,3.86-1.08.42,2.85.41,5.75-.04,8.59Zm46.9-14.02c-.49,2.36-9.67,25.25-10.56,31.16-.62,3.73-.65,7.53-.07,11.27-.96,1.38-4.18,4.93-12.52,6.73-11.38,1.16-17.12-2.59-19.32-4.59,1.23-2.07,1.65-4.53,1.19-6.89-.58-2.38-5.68-7.58-3.19-13.97,2.89-6.92,3.57-14.57,1.93-21.89-.94-3.85-2.19-7.62-3.75-11.27-1.89-4.64-1.98-5.36-.85-6.43,2.69-2.47,8.23,1.36,10.53,4.71,1.52,2.21,2.72,6.06,3.89,9.8,1.49,4.78,2.89,9.29,5.27,11.84,5.14,5.51,10.32,6.26,10.54,6.28,1.33.17,2.54-.76,2.74-2.08.2-1.34-.73-2.59-2.07-2.79-1.39-.29-2.7-.84-3.89-1.62,2.97-1.94,5.57-4.38,7.69-7.22.76-1.12.46-2.65-.66-3.41-.84-.57-1.94-.56-2.77.02-.83-.62-1.82-1.41-2.75-2.17l4.03-1.13c3.05-.85,5.31-3.41,5.79-6.54,2.87,1.75,6.05,3.27,7.07,4.21,1.38,1.67,2,3.84,1.7,5.99Z"/>
    <path d="m27.77,77.83c1.19.66,2.68.23,3.34-.96h0c6.27-11.31,6.27-21.39,0-32.7-.66-1.19-2.15-1.61-3.34-.96-1.19.66-1.61,2.15-.96,3.34,5.44,9.82,5.44,18.14,0,27.93-.66,1.19-.23,2.68.96,3.34h0Z"/>
    <path d="m18.41,71.95c1.16.7,2.66.32,3.36-.83,3.99-6.5,3.99-14.69,0-21.18-.77-1.12-2.3-1.4-3.41-.63-1.02.7-1.36,2.06-.78,3.16,3.02,4.95,3.02,11.18,0,16.13-.7,1.16-.32,2.66.83,3.36Z"/>
    <path d="m38.35,82.54c1.21.61,2.69.12,3.3-1.09,0,0,0,0,0-.01,7.36-14.65,7.36-27.17,0-41.83-.61-1.21-2.08-1.71-3.3-1.1-1.21.61-1.71,2.08-1.1,3.3,6.64,13.29,6.64,24.14,0,37.43-.61,1.21-.13,2.69,1.08,3.3,0,0,0,0,0,0Z"/>
    <path d="m48.85,87.19c1.21.6,2.68.12,3.29-1.09,8.49-16.99,8.49-34.17,0-51.15-.62-1.21-2.11-1.69-3.32-1.06-1.21.62-1.69,2.11-1.06,3.32,7.85,15.73,7.85,31.03,0,46.76-.56,1.19-.08,2.62,1.09,3.23Z"/>
    <path d="m66.27,109.62c4.59.01,9.18-.25,13.75-.8,1.36-.17,2.32-1.41,2.15-2.76s-1.41-2.32-2.76-2.15c-4.36.53-8.74.8-13.13.8-33.85,0-61.37-19.82-61.37-44.18,0-19.78,18.5-37.3,44.97-42.59,1.23-.26,4.05-.9,5.3-1.07,1.36-.19,2.3-1.44,2.12-2.79-.19-1.36-1.44-2.3-2.79-2.12-1.5.21-4.19.83-5.58,1.12C20.12,18.87,0,38.43,0,60.52c0,27.07,29.71,49.09,66.27,49.09Z"/>
  </g>
</svg>